<svg width="100%" height="100%" viewBox="0 0 18 18" fill="none" fit=""
    preserveAspectRatio="xMidYMid meet" focusable="false" sandboxuid="3"
    xmlns="http://www.w3.org/2000/svg">
    <path
        d="M15.72 9.16C15.72 8.7 15.67 8.35 15.61 8H9V10.4H12.97C12.87 11.02 12.45 11.99 11.52 12.66V14.3H13.64C14.96 13.09 15.72 11.29 15.72 9.16Z"
        fill="#4285F4" sandboxuid="3"></path>
    <path
        d="M9 16C10.89 16 12.47 15.37 13.63 14.31L11.51 12.67C10.91 13.1 10.09 13.42 9 13.42C7.11 13.42 5.52 12.18 4.92 10.46H2.75V12.15C3.9 14.43 6.26 16 9 16Z"
        fill="#34A853" sandboxuid="3"></path>
    <path
        d="M4.92 10.4501C4.77 10.0001 4.66 9.51011 4.66 9.00011C4.66 8.49011 4.76 8.00011 4.92 7.55011V5.86011H2.75C2.27 6.81011 2 7.87011 2 9.00011C2 10.1301 2.27 11.1901 2.75 12.1401L4.92 10.4501V10.4501Z"
        fill="#FBBC05" sandboxuid="3"></path>
    <path
        d="M9 4.58C10.36 4.58 11.27 5.16 11.79 5.66L13.69 3.83C12.47 2.69 10.89 2 9 2C6.26 2 3.9 3.57 2.75 5.86L4.92 7.55C5.52 5.83 7.11 4.58 9 4.58Z"
        fill="#EA4335" sandboxuid="3"></path>
</svg>